# xmcd
# 
# Track frame offsets:
#     187
#     20705
#     43102
#     63585
# 
# Disc length: 1142
# 
# Revision: 4
# Processed by: cddbd v1.5.2PL0 Copyright (c) Steve Scherf et al.
# Submitted via: fre:ac v1.1beta1pre2
# 
DISCID=34047404
DTITLE=新居昭乃 - 月の家
DYEAR=1998
DGENRE=JPop
TTITLE0=月の家
TTITLE1=黒い種
TTITLE2=月の家 (OFF VOCAL)
TTITLE3=黒い種 (OFF VOCAL)
EXTD=
EXTT0=
EXTT1=
EXTT2=
EXTT3=
PLAYORDER=
